<svg version="1.1" id="Layer_1" xmlns="http://www.w3.org/2000/svg" xmlns:xlink="http://www.w3.org/1999/xlink" x="0px" y="0px"
	 width="100%" viewBox="0 0 304 192" enable-background="new 0 0 304 192" xml:space="preserve">
<path fill="#000000" opacity="1.000000" stroke="none" 
	d="
M147.679916,160.702728 
	C121.413170,155.471802 103.078728,136.914780 98.150101,110.912239 
	C93.740433,87.647636 104.784416,63.082409 125.796768,49.417564 
	C162.382401,25.625031 213.249359,49.823582 218.313858,93.430023 
	C223.024109,133.986450 189.324722,166.325699 147.679916,160.702728 
M179.879898,66.999588 
	C178.800156,65.982796 177.426025,66.048073 176.107162,66.044838 
	C160.610947,66.006866 145.114670,65.975952 129.618469,65.999107 
	C128.395081,66.000938 126.883377,65.628395 126.027779,67.456215 
	C127.716270,70.653069 130.782471,72.805260 133.146362,75.545860 
	C136.585159,79.532661 140.162704,83.100975 146.207687,82.182571 
	C148.523560,81.830734 149.959793,83.256470 149.942581,85.770287 
	C149.870987,96.222908 159.642990,98.855118 164.934830,106.477753 
	C167.100769,99.273132 166.740036,93.505844 166.164932,87.743301 
	C165.767426,83.760300 167.230804,81.831444 171.460297,81.970276 
	C177.286728,82.161507 183.123810,82.106674 188.954559,82.027107 
	C190.236282,82.009613 192.026810,82.776543 192.829636,80.169441 
	C186.370880,77.289787 178.911606,81.075699 171.563309,77.520226 
	C176.803909,74.698402 181.442581,76.851204 186.863022,75.298393 
	C182.405075,75.298393 179.133179,75.467842 175.887512,75.248672 
	C172.900925,75.046989 169.512680,76.491867 166.358185,73.410469 
	C172.271805,70.962868 177.919128,72.699104 183.831802,71.905846 
	C181.324051,70.549774 178.321823,72.338814 176.860672,69.860138 
	C177.466614,67.940285 179.618423,69.013931 179.879898,66.999588 
M166.583176,122.010429 
	C166.539429,120.523010 166.826920,118.858040 165.723740,117.708183 
	C160.970688,112.753937 156.123093,107.890411 151.309921,102.993851 
	C150.136292,111.045105 150.110901,118.466011 150.174286,125.886162 
	C150.180862,126.656250 150.514465,127.612694 151.035461,128.159561 
	C155.553253,132.901642 160.148666,137.569763 165.390121,142.946274 
	C167.281097,135.446701 166.385330,129.138428 166.583176,122.010429 
z"/>
</svg>